<svg width="1000" height="1000" viewBox="0 0 1000 1000" fill="none" xmlns="http://www.w3.org/2000/svg">
<rect width="1000" height="1000" fill="#FCCF47"/>
<path d="M168.841 718V281.636H316.284C350.375 281.636 378.358 287.46 400.233 299.108C422.108 310.614 438.301 326.452 448.812 346.622C459.324 366.793 464.58 389.733 464.58 415.443C464.58 441.153 459.324 463.952 448.812 483.838C438.301 503.724 422.179 519.349 400.446 530.713C378.713 541.935 350.943 547.545 317.136 547.545H197.818V499.818H315.432C338.727 499.818 357.477 496.409 371.682 489.591C386.028 482.773 396.398 473.114 402.79 460.614C409.324 447.972 412.591 432.915 412.591 415.443C412.591 397.972 409.324 382.702 402.79 369.634C396.256 356.565 385.815 346.48 371.469 339.378C357.122 332.134 338.159 328.511 314.58 328.511H221.682V718H168.841ZM374.239 521.977L481.625 718H420.261L314.58 521.977H374.239Z" fill="black"/>
<path d="M710.5 386L744.963 486.193H856.487L766.262 548.115L800.725 648.307L710.5 586.385L620.275 648.307L654.738 548.115L564.513 486.193H676.037L710.5 386Z" fill="black"/>
</svg>
